<?xml version="1.0" ?><!-- Uploaded to: SVG Repo, www.svgrepo.com, Generator: SVG Repo Mixer Tools -->
<svg fill="#000000" width="800px" height="800px" viewBox="0 0 512 512" data-name="Layer 1" id="Layer_1" xmlns="http://www.w3.org/2000/svg"><title/><path d="M371.13,257.23C363.73,132.73,264.22,41.76,260,38c-.53-.48-1.26-.41-1.9-.67a3.34,3.34,0,0,0-4.19,0c-.63.26-1.35.19-1.89.67-4.23,3.81-103.74,94.78-111.13,219.28-7.53,126.5,77.66,158.53,78.52,158.82a5.75,5.75,0,0,0,2,.36,6,6,0,0,0,2-11.57c-3.16-1.16-77.63-29.66-70.66-146.9C159.05,152,237.55,68.79,256,50.63c18.45,18.15,96.93,101.22,103.24,207.31,7,117.24-67.5,145.74-70.68,146.9a6,6,0,0,0,2,11.57,5.69,5.69,0,0,0,2-.36C293.47,415.76,378.65,383.73,371.13,257.23Z"/><path d="M305.33,324.83a6,6,0,0,0-9.91-6.64L262,368V312.16l43.38-64.53a6,6,0,0,0-9.91-6.64L262,290.78V235l26.35-39.19a6,6,0,0,0-9.91-6.65L262,213.58V151.17a6,6,0,1,0-11.92,0v62.41l-16.44-24.46a6,6,0,1,0-9.9,6.65L250,235v55.81L216.58,241a6,6,0,0,0-9.91,6.64L250,312.16V368l-33.45-49.78a6,6,0,0,0-9.91,6.64L250,389.36V469.5a6,6,0,1,0,11.92,0V389.36Z"/></svg>